# Blender 3.3.1
# www.blender.org
mtllib LensL.mtl
o Cube.002
v -1.697981 1.224807 0.310852
v -0.927849 1.210029 0.591006
v -1.312916 1.217418 0.450929
v -0.542784 1.202640 0.731083
v -2.015527 0.971941 0.181131
v -0.233235 1.487048 0.859617
v -0.927618 0.869021 0.572383
v -0.928081 1.551037 0.609630
v -1.697750 0.883799 0.292229
v -1.698212 1.565815 0.329476
v -0.341157 1.652774 0.829336
v -0.226196 1.270942 0.850330
v -1.889338 0.633922 0.208625
v -2.003385 1.361365 0.206925
v -0.542553 0.861632 0.712460
v -0.543015 1.543648 0.749707
v -1.312685 0.876410 0.432306
v -1.313147 1.558426 0.469553
v -0.520351 0.774918 0.715803
v -0.708707 0.651129 0.640294
v -0.975424 0.526424 0.536147
v -1.369664 0.505069 0.391146
v -1.837150 1.732569 0.287936
v -1.658903 1.813899 0.357427
v -1.309309 1.847996 0.486838
v -0.593414 1.818564 0.746401
v -1.701338 0.526040 0.271293
v -0.353908 0.984432 0.788019
v -1.923785 1.583565 0.248155
v -0.444615 1.768625 0.797948
vn -0.3423 -0.0515 0.9382
vt 0.787434 0.507145
vt 0.413675 0.507145
vt 0.600554 0.507145
vt 0.226794 0.507145
vt 0.974314 0.507145
vt 0.039915 0.507145
vt 0.413675 0.662877
vt 0.413675 0.351412
vt 0.787434 0.662879
vt 0.787434 0.351412
vt 0.039915 0.351412
vt 0.039915 0.662877
vt 0.974314 0.662879
vt 0.974314 0.351412
vt 0.226794 0.662879
vt 0.226794 0.351412
vt 0.600554 0.662879
vt 0.600554 0.351412
vt 0.226794 0.974344
vt 0.413675 0.974344
vt 0.600554 0.974344
vt 0.787434 0.974344
vt 0.787434 0.039945
vt 0.600554 0.039945
vt 0.413675 0.039945
vt 0.226794 0.039945
vt 0.974314 0.974344
vt 0.039915 0.974344
vt 0.974314 0.039945
vt 0.039915 0.039945
s 1
usemtl Material.002
f 14/14/1 1/1/1 10/10/1
f 16/16/1 2/2/1 4/4/1
f 16/16/1 6/6/1 11/11/1
f 8/8/1 3/3/1 2/2/1
f 15/15/1 20/20/1 19/19/1
f 15/15/1 28/28/1 12/12/1
f 9/9/1 27/27/1 22/22/1
f 18/18/1 1/1/1 3/3/1
f 25/25/1 18/18/1 8/8/1
f 17/17/1 22/22/1 21/21/1
f 7/7/1 21/21/1 20/20/1
f 1/1/1 17/17/1 3/3/1
f 24/24/1 10/10/1 18/18/1
f 3/3/1 7/7/1 2/2/1
f 4/4/1 12/12/1 6/6/1
f 26/26/1 8/8/1 16/16/1
f 2/2/1 15/15/1 4/4/1
f 30/30/1 16/16/1 11/11/1
f 5/5/1 9/9/1 1/1/1
f 29/29/1 10/10/1 23/23/1
f 14/14/1 5/5/1 1/1/1
f 16/16/1 8/8/1 2/2/1
f 16/16/1 4/4/1 6/6/1
f 8/8/1 18/18/1 3/3/1
f 15/15/1 7/7/1 20/20/1
f 15/15/1 19/19/1 28/28/1
f 9/9/1 13/13/1 27/27/1
f 18/18/1 10/10/1 1/1/1
f 25/25/1 24/24/1 18/18/1
f 17/17/1 9/9/1 22/22/1
f 7/7/1 17/17/1 21/21/1
f 1/1/1 9/9/1 17/17/1
f 24/24/1 23/23/1 10/10/1
f 3/3/1 17/17/1 7/7/1
f 4/4/1 15/15/1 12/12/1
f 26/26/1 25/25/1 8/8/1
f 2/2/1 7/7/1 15/15/1
f 30/30/1 26/26/1 16/16/1
f 5/5/1 13/13/1 9/9/1
f 29/29/1 14/14/1 10/10/1
