# Blender v3.1.2 OBJ File: ''
# www.blender.org
mtllib Block.mtl
o Cube.001
v 1.000000 1.000000 -1.000000
v -1.000000 1.000000 -1.000000
v -1.000000 1.000000 1.000000
v 1.000000 1.000000 1.000000
v 1.000000 -1.000000 1.000000
v -1.000000 -1.000000 1.000000
v -1.000000 -1.000000 -1.000000
v 1.000000 -1.000000 -1.000000
vt 0.995087 0.993537
vt 0.510277 0.993537
vt 0.510277 0.508727
vt 0.995087 0.508727
vt 0.491273 0.007993
vt 0.491273 0.492803
vt 0.006463 0.492803
vt 0.006463 0.007993
vt 0.491272 0.008013
vt 0.491272 0.492823
vt 0.006463 0.492823
vt 0.006463 0.008013
vt 0.006506 0.993601
vt 0.491316 0.993601
vt 0.491316 0.508791
vt 0.006506 0.508791
vt 0.491273 0.008019
vt 0.491273 0.492829
vt 0.006463 0.492829
vt 0.006463 0.008019
vt 0.491273 0.008013
vt 0.491273 0.492823
vt 0.006462 0.492823
vt 0.006462 0.008013
vn 0.0000 1.0000 0.0000
vn 0.0000 -0.0000 1.0000
vn -1.0000 0.0000 0.0000
vn 0.0000 -1.0000 -0.0000
vn 1.0000 0.0000 0.0000
vn 0.0000 0.0000 -1.0000
usemtl Material.001
s 1
f 1/1/1 2/2/1 3/3/1 4/4/1
f 5/5/2 4/6/2 3/7/2 6/8/2
f 6/9/3 3/10/3 2/11/3 7/12/3
f 7/13/4 8/14/4 5/15/4 6/16/4
f 8/17/5 1/18/5 4/19/5 5/20/5
f 7/21/6 2/22/6 1/23/6 8/24/6
