# Blender v3.6.4 OBJ File: 'monochroom_stage.blend'
# www.blender.org
mtllib stage1_pipe.mtl
o pipe_円柱
v -0.000000 -103.907372 96.744965
v -0.000000 81.143257 96.744965
v 5.567171 -103.907372 97.852318
v 5.567171 81.143257 97.852318
v 10.286790 -103.907372 101.005882
v 10.286790 81.143257 101.005882
v 13.440338 -103.907372 105.725517
v 13.440338 81.143257 105.725517
v 14.547718 -103.907372 111.292679
v 14.547718 81.143257 111.292679
v 13.440338 -103.907372 116.859840
v 13.440338 81.143257 116.859840
v 10.286790 -103.907372 121.579483
v 10.286790 81.143257 121.579483
v 5.567171 -103.907372 124.733047
v 5.567171 81.143257 124.733047
v -0.000000 -103.907372 125.840401
v -0.000000 81.143257 125.840401
v -5.567171 -103.907372 124.733047
v -5.567171 81.143257 124.733047
v -10.286790 -103.907372 121.579483
v -10.286790 81.143257 121.579483
v -13.440338 -103.907372 116.859840
v -13.440338 81.143257 116.859840
v -14.547718 -103.907372 111.292679
v -14.547718 81.143257 111.292679
v -13.440338 -103.907372 105.725517
v -13.440338 81.143257 105.725517
v -10.286790 -103.907372 101.005882
v -10.286790 81.143257 101.005882
v -5.567171 -103.907372 97.852318
v -5.567171 81.143257 97.852318
v 0.000010 89.059395 -104.650314
v 5.567181 90.166748 -104.650314
v 10.286799 93.320312 -104.650314
v 13.440348 98.039948 -104.650314
v 14.547728 103.607109 -104.650314
v 13.440348 109.174271 -104.650314
v 10.286799 113.893921 -104.650314
v 5.567181 117.047485 -104.650314
v 0.000010 118.154831 -104.650314
v -5.567160 117.047485 -104.650314
v -10.286778 113.893921 -104.650314
v -13.440327 109.174271 -104.650314
v -14.547707 103.607109 -104.650314
v -13.440327 98.039948 -104.650314
v -10.286778 93.320312 -104.650314
v -5.567160 90.166748 -104.650314
v 13.440339 92.320290 112.765106
v 10.286791 94.114937 116.750916
v -10.286789 94.114937 116.750916
v -13.440337 92.320282 112.765091
v -5.567170 85.092659 96.712914
v 0.000001 84.671585 95.777733
v 13.440339 88.086449 103.361961
v 14.547719 90.203369 108.063530
v 0.000001 95.735161 120.349319
v -5.567170 95.314079 119.414146
v -13.440337 88.086449 103.361961
v -10.286789 86.291794 99.376152
v 5.567172 85.092659 96.712914
v 10.286791 86.291794 99.376152
v 5.567172 95.314079 119.414146
v -14.547717 90.203369 108.063530
v 13.440340 104.303123 100.016624
v -10.286787 107.824860 102.110695
v -5.567169 90.119934 91.583015
v 13.440340 95.994820 95.076332
v 0.000002 111.004311 104.001244
v -13.440336 95.994820 95.076332
v 5.567173 90.119934 91.583015
v 10.286792 107.824860 102.110695
v -13.440336 104.303116 100.016609
v 0.000002 89.293640 91.091690
v 14.547720 100.148972 97.546478
v -5.567169 110.178001 103.509926
v -10.286787 92.473076 92.982246
v 10.286792 92.473076 92.982246
v 5.567173 110.178001 103.509926
v -14.547716 100.148972 97.546478
v 13.440341 108.473564 84.830994
v -10.286786 112.476532 85.732048
v -5.567168 92.352287 81.202087
v 13.440341 99.029961 82.705231
v 0.000003 116.090446 86.545540
v -13.440335 99.029961 82.705231
v 5.567174 92.352287 81.202087
v 10.286793 112.476532 85.732048
v -13.440335 108.473557 84.830994
v 0.000003 91.413078 80.990669
v 14.547721 103.751762 83.768112
v -5.567168 115.151230 86.334129
v -10.286786 95.026985 81.804169
v 10.286793 95.026985 81.804169
v 5.567174 115.151230 86.334129
v -14.547715 103.751762 83.768112
vt 1.000000 1.000000
vt 0.937500 0.500000
vt 1.000000 0.500000
vt 0.937500 1.000000
vt 0.875000 0.500000
vt 0.875000 1.000000
vt 0.812500 0.500000
vt 0.812500 1.000000
vt 0.750000 0.500000
vt 0.750000 1.000000
vt 0.687500 0.500000
vt 0.687500 1.000000
vt 0.625000 0.500000
vt 0.625000 1.000000
vt 0.562500 0.500000
vt 0.562500 1.000000
vt 0.500000 0.500000
vt 0.500000 1.000000
vt 0.437500 0.500000
vt 0.437500 1.000000
vt 0.375000 0.500000
vt 0.375000 1.000000
vt 0.312500 0.500000
vt 0.312500 1.000000
vt 0.250000 0.500000
vt 0.250000 1.000000
vt 0.187500 0.500000
vt 0.187500 1.000000
vt 0.125000 0.500000
vt 0.687500 1.000000
vt 0.625000 1.000000
vt 0.625000 1.000000
vt 0.125000 1.000000
vt 0.062500 0.500000
vt 0.062500 1.000000
vt 0.000000 0.500000
vt 0.971731 0.341844
vt 0.841844 0.028269
vt 0.528269 0.158156
vt 0.250000 0.010000
vt 0.419706 0.080294
vt 0.419706 0.419706
vt 0.312500 1.000000
vt 0.375000 1.000000
vt 0.312500 1.000000
vt 0.000328 1.000000
vt 0.062500 1.000000
vt 0.000000 1.000000
vt 0.812500 1.000000
vt 0.750000 1.000000
vt 0.750000 1.000000
vt 0.437500 1.000000
vt 0.500000 1.000000
vt 0.437500 1.000000
vt 0.125000 1.000000
vt 0.187500 1.000000
vt 0.125000 1.000000
vt 0.937500 1.000000
vt 0.875000 1.000000
vt 0.875000 1.000000
vt 0.562500 1.000000
vt 0.562500 1.000000
vt 0.250000 1.000000
vt 0.250000 1.000000
vt 0.687500 1.000000
vt 0.375000 1.000000
vt 0.062500 1.000000
vt 0.812500 1.000000
vt 0.500000 1.000000
vt 0.999672 1.000000
vt 0.937500 1.000000
vt 0.187500 1.000000
vt 0.250000 1.000000
vt 0.187500 1.000000
vt 0.937500 1.000000
vt 0.500000 1.000000
vt 0.812500 1.000000
vt 0.125000 1.000000
vt 0.062500 1.000000
vt 0.437500 1.000000
vt 0.375000 1.000000
vt 0.687500 1.000000
vt 0.312500 1.000000
vt 0.562500 1.000000
vt 0.875000 1.000000
vt 0.750000 1.000000
vt 0.000000 1.000000
vt 0.000275 1.000000
vt 0.625000 1.000000
vt 0.250000 1.000000
vt 0.187500 1.000000
vt 0.999725 1.000000
vt 0.937500 1.000000
vt 0.500000 1.000000
vt 0.812500 1.000000
vt 0.125000 1.000000
vt 0.062500 1.000000
vt 0.437500 1.000000
vt 0.375000 1.000000
vt 0.687500 1.000000
vt 0.312500 1.000000
vt 0.562500 1.000000
vt 0.875000 1.000000
vt 0.750000 1.000000
vt 0.000374 1.000000
vt 0.625000 1.000000
vt 0.999626 1.000000
vt 0.658156 0.471731
vt 0.750000 0.490000
vt 0.841844 0.471731
vt 0.919706 0.419706
vt 0.990000 0.250000
vt 0.971731 0.158156
vt 0.919706 0.080294
vt 0.750000 0.010000
vt 0.658156 0.028269
vt 0.580294 0.080294
vt 0.510000 0.250000
vt 0.528269 0.341844
vt 0.580294 0.419706
vt 0.341844 0.471731
vt 0.250000 0.490000
vt 0.158156 0.471731
vt 0.080294 0.419706
vt 0.028269 0.341844
vt 0.010000 0.250000
vt 0.028269 0.158156
vt 0.080294 0.080294
vt 0.158156 0.028269
vt 0.341844 0.028269
vt 0.471731 0.158156
vt 0.490000 0.250000
vt 0.471731 0.341844
vt 1.000000 1.000000
vn 0.1951 0.0000 -0.9808
vn 0.5556 0.0000 -0.8315
vn 0.8315 0.0000 -0.5556
vn 0.9808 0.0000 -0.1951
vn 0.9808 0.0000 0.1951
vn 0.8315 0.0000 0.5556
vn 0.5556 0.0000 0.8315
vn 0.1951 0.0000 0.9808
vn -0.1951 0.0000 0.9808
vn -0.5556 0.0000 0.8315
vn -0.8315 0.0000 0.5556
vn -0.9808 0.0000 0.1951
vn -0.9808 0.0000 -0.1951
vn -0.8315 0.0000 -0.5556
vn 0.7860 0.6182 0.0046
vn -0.5556 0.0000 -0.8315
vn -0.1951 0.0000 -0.9808
vn 0.0000 -1.0000 0.0000
vn 0.0000 0.0000 -1.0000
vn -0.8315 0.5556 0.0021
vn -0.1951 -0.9807 0.0124
vn 0.9736 -0.2284 0.0002
vn -0.1951 0.9807 0.0097
vn -0.8315 -0.5556 0.0051
vn 0.4923 -0.8704 0.0080
vn 0.4939 0.8695 0.0086
vn -0.9808 0.1951 -0.0001
vn 0.9736 0.2281 0.0008
vn -0.5556 0.8315 0.0062
vn -0.5555 -0.8314 0.0098
vn 0.7852 -0.6193 0.0033
vn 0.1667 0.9859 0.0106
vn 0.1659 -0.9861 0.0116
vn -0.9808 -0.1951 0.0010
vn -0.9775 -0.0680 -0.1996
vn 0.1877 -0.2723 -0.9437
vn 0.1830 0.3462 0.9201
vn 0.8170 -0.1858 -0.5459
vn -0.5224 -0.2364 -0.8193
vn -0.5254 0.2968 0.7974
vn 0.9783 0.0713 0.1946
vn -0.9776 0.0707 0.1984
vn 0.5303 0.2979 0.7937
vn 0.5373 -0.2545 -0.8041
vn -0.8091 -0.1774 -0.5603
vn -0.1808 0.3456 0.9208
vn 0.9784 -0.0694 -0.1946
vn -0.1791 -0.2601 -0.9488
vn -0.8103 0.2016 0.5503
vn 0.8142 0.2025 0.5441
vn -0.9735 -0.1655 -0.1580
vn 0.1691 -0.7039 -0.6898
vn 0.1675 0.7205 0.6729
vn 0.7890 -0.4444 -0.4242
vn -0.4910 -0.6222 -0.6098
vn -0.4930 0.6351 0.5947
vn 0.9740 0.1650 0.1551
vn -0.9735 0.1661 0.1571
vn 0.4958 0.6345 0.5930
vn 0.4984 -0.6233 -0.6026
vn -0.7844 -0.4460 -0.4311
vn -0.1663 0.7204 0.6733
vn 0.9741 -0.1644 -0.1554
vn -0.1653 -0.7022 -0.6926
vn -0.7853 0.4511 0.4240
vn 0.7879 0.4495 0.4210
vn -0.9748 -0.2167 -0.0532
vn 0.1615 -0.9648 -0.2075
vn 0.1649 0.9469 0.2759
vn 0.7791 -0.6088 -0.1494
vn -0.5023 -0.8454 -0.1818
vn -0.5017 0.8321 0.2363
vn 0.9729 0.2229 0.0612
vn -0.9748 0.2159 0.0565
vn 0.4895 0.8376 0.2425
vn 0.4833 -0.8534 -0.1950
vn -0.7929 -0.5941 -0.1357
vn -0.1701 0.9465 0.2741
vn 0.9727 -0.2244 -0.0587
vn -0.1704 -0.9644 -0.2023
vn -0.7926 0.5880 0.1615
vn 0.7822 0.5993 0.1702
vn 0.8315 0.5556 0.0021
vn -0.7860 0.6182 0.0046
vn -0.1659 -0.9861 0.0116
vn 0.9808 -0.1951 0.0010
vn -0.1667 0.9859 0.0106
vn -0.7852 -0.6193 0.0033
vn 0.5555 -0.8314 0.0098
vn 0.5556 0.8315 0.0062
vn -0.9736 0.2281 0.0008
vn 0.9808 0.1951 -0.0001
vn -0.4939 0.8695 0.0086
vn -0.4923 -0.8704 0.0080
vn 0.8315 -0.5556 0.0051
vn 0.1951 0.9807 0.0097
vn 0.1951 -0.9807 0.0124
vn -0.9736 -0.2284 0.0002
vn -0.9784 -0.0694 -0.1946
vn 0.1791 -0.2601 -0.9488
vn 0.1808 0.3456 0.9208
vn 0.8091 -0.1774 -0.5603
vn -0.5373 -0.2545 -0.8041
vn -0.5303 0.2979 0.7937
vn 0.9776 0.0707 0.1984
vn -0.9783 0.0713 0.1946
vn 0.5254 0.2968 0.7974
vn 0.5224 -0.2364 -0.8193
vn -0.8170 -0.1858 -0.5459
vn -0.1830 0.3462 0.9201
vn 0.9775 -0.0680 -0.1996
vn -0.1877 -0.2723 -0.9437
vn -0.8142 0.2025 0.5441
vn 0.8103 0.2016 0.5503
vn -0.9741 -0.1644 -0.1554
vn 0.1653 -0.7022 -0.6926
vn 0.1663 0.7204 0.6733
vn 0.7844 -0.4460 -0.4311
vn -0.4984 -0.6233 -0.6026
vn -0.4958 0.6345 0.5930
vn 0.9735 0.1661 0.1571
vn -0.9740 0.1650 0.1551
vn 0.4930 0.6351 0.5947
vn 0.4910 -0.6222 -0.6098
vn -0.7890 -0.4444 -0.4242
vn -0.1675 0.7205 0.6729
vn 0.9735 -0.1655 -0.1580
vn -0.1691 -0.7039 -0.6898
vn -0.7879 0.4495 0.4210
vn 0.7853 0.4511 0.4240
vn -0.9727 -0.2244 -0.0587
vn 0.1704 -0.9644 -0.2023
vn 0.1701 0.9465 0.2741
vn 0.7929 -0.5941 -0.1357
vn -0.4833 -0.8534 -0.1950
vn -0.4895 0.8376 0.2425
vn 0.9748 0.2159 0.0565
vn -0.9729 0.2229 0.0612
vn 0.5017 0.8321 0.2363
vn 0.5023 -0.8454 -0.1818
vn -0.7791 -0.6088 -0.1494
vn -0.1649 0.9469 0.2759
vn 0.9748 -0.2167 -0.0532
vn -0.1615 -0.9648 -0.2075
vn -0.7823 0.5993 0.1702
vn 0.7926 0.5880 0.1615
usemtl None
s off
f 2/1/1 3/2/1 1/3/1
f 4/4/2 5/5/2 3/2/2
f 6/6/3 7/7/3 5/5/3
f 8/8/4 9/9/4 7/7/4
f 10/10/5 11/11/5 9/9/5
f 12/12/6 13/13/6 11/11/6
f 14/14/7 15/15/7 13/13/7
f 16/16/8 17/17/8 15/15/8
f 18/18/9 19/19/9 17/17/9
f 20/20/10 21/21/10 19/19/10
f 22/22/11 23/23/11 21/21/11
f 24/24/12 25/25/12 23/23/12
f 26/26/13 27/27/13 25/25/13
f 28/28/14 29/29/14 27/27/14
f 81/30/15 39/31/15 88/32/15
f 30/33/16 31/34/16 29/29/16
f 32/35/17 1/36/17 31/34/17
f 7/37/18 15/38/18 23/39/18
f 41/40/19 39/41/19 35/42/19
f 89/43/20 43/44/20 44/45/20
f 90/46/21 48/47/21 33/48/21
f 84/49/22 37/50/22 91/51/22
f 92/52/23 41/53/23 42/54/23
f 93/55/24 46/56/24 47/57/24
f 87/58/25 35/59/25 94/60/25
f 88/32/26 40/61/26 95/62/26
f 96/63/27 44/45/27 45/64/27
f 91/51/28 38/65/28 81/30/28
f 82/66/29 42/54/29 43/44/29
f 83/67/30 47/57/30 48/47/30
f 94/60/31 36/68/31 84/49/31
f 95/62/32 41/53/32 85/69/32
f 90/70/33 34/71/33 87/58/33
f 86/72/34 45/64/34 46/56/34
f 28/28/35 64/73/35 59/74/35
f 2/1/36 61/75/36 4/4/36
f 16/16/37 57/76/37 18/18/37
f 6/6/38 55/77/38 8/8/38
f 32/35/39 60/78/39 53/79/39
f 22/22/40 58/80/40 51/81/40
f 10/10/41 49/82/41 12/12/41
f 26/26/42 52/83/42 64/73/42
f 14/14/43 63/84/43 16/16/43
f 4/4/44 62/85/44 6/6/44
f 30/33/45 59/74/45 60/78/45
f 20/20/46 57/76/46 58/80/46
f 8/8/47 56/86/47 10/10/47
f 2/87/48 53/79/48 54/88/48
f 24/24/49 51/81/49 52/83/49
f 12/12/50 50/89/50 14/14/50
f 59/74/51 80/90/51 70/91/51
f 54/92/52 71/93/52 61/75/52
f 63/84/53 69/94/53 57/76/53
f 62/85/54 68/95/54 55/77/54
f 53/79/55 77/96/55 67/97/55
f 51/81/56 76/98/56 66/99/56
f 56/86/57 65/100/57 49/82/57
f 64/73/58 73/101/58 80/90/58
f 50/89/59 79/102/59 63/84/59
f 61/75/60 78/103/60 62/85/60
f 60/78/61 70/91/61 77/96/61
f 58/80/62 69/94/62 76/98/62
f 55/77/63 75/104/63 56/86/63
f 54/88/64 67/97/64 74/105/64
f 52/83/65 66/99/65 73/101/65
f 49/82/66 72/106/66 50/89/66
f 70/91/67 96/63/67 86/72/67
f 74/107/68 87/58/68 71/93/68
f 79/102/69 85/69/69 69/94/69
f 78/103/70 84/49/70 68/95/70
f 67/97/71 93/55/71 83/67/71
f 66/99/72 92/52/72 82/66/72
f 75/104/73 81/30/73 65/100/73
f 80/90/74 89/43/74 96/63/74
f 72/106/75 95/62/75 79/102/75
f 71/93/76 94/60/76 78/103/76
f 77/96/77 86/72/77 93/55/77
f 76/98/78 85/69/78 92/52/78
f 68/95/79 91/51/79 75/104/79
f 74/105/80 83/67/80 90/46/80
f 73/101/81 82/66/81 89/43/81
f 65/100/82 88/32/82 72/106/82
f 2/1/1 4/4/1 3/2/1
f 4/4/2 6/6/2 5/5/2
f 6/6/3 8/8/3 7/7/3
f 8/8/4 10/10/4 9/9/4
f 10/10/5 12/12/5 11/11/5
f 12/12/6 14/14/6 13/13/6
f 14/14/7 16/16/7 15/15/7
f 16/16/8 18/18/8 17/17/8
f 18/18/9 20/20/9 19/19/9
f 20/20/10 22/22/10 21/21/10
f 22/22/11 24/24/11 23/23/11
f 24/24/12 26/26/12 25/25/12
f 26/26/13 28/28/13 27/27/13
f 28/28/14 30/33/14 29/29/14
f 81/30/83 38/65/83 39/31/83
f 30/33/16 32/35/16 31/34/16
f 32/35/17 2/87/17 1/36/17
f 31/108/18 1/109/18 7/37/18
f 1/109/18 3/110/18 7/37/18
f 3/110/18 5/111/18 7/37/18
f 7/37/18 9/112/18 11/113/18
f 11/113/18 13/114/18 15/38/18
f 15/38/18 17/115/18 23/39/18
f 17/115/18 19/116/18 23/39/18
f 19/116/18 21/117/18 23/39/18
f 23/39/18 25/118/18 27/119/18
f 27/119/18 29/120/18 23/39/18
f 29/120/18 31/108/18 23/39/18
f 7/37/18 11/113/18 15/38/18
f 31/108/18 7/37/18 23/39/18
f 35/42/19 34/121/19 33/122/19
f 33/122/19 48/123/19 47/124/19
f 47/124/19 46/125/19 45/126/19
f 45/126/19 44/127/19 47/124/19
f 44/127/19 43/128/19 47/124/19
f 43/128/19 42/129/19 41/40/19
f 41/40/19 40/130/19 39/41/19
f 39/41/19 38/131/19 35/42/19
f 38/131/19 37/132/19 35/42/19
f 37/132/19 36/133/19 35/42/19
f 35/42/19 33/122/19 43/128/19
f 33/122/19 47/124/19 43/128/19
f 43/128/19 41/40/19 35/42/19
f 89/43/84 82/66/84 43/44/84
f 90/46/85 83/67/85 48/47/85
f 84/49/86 36/68/86 37/50/86
f 92/52/87 85/69/87 41/53/87
f 93/55/88 86/72/88 46/56/88
f 87/58/89 34/71/89 35/59/89
f 88/32/90 39/31/90 40/61/90
f 96/63/91 89/43/91 44/45/91
f 91/51/92 37/50/92 38/65/92
f 82/66/93 92/52/93 42/54/93
f 83/67/94 93/55/94 47/57/94
f 94/60/95 35/59/95 36/68/95
f 95/62/96 40/61/96 41/53/96
f 90/70/97 33/134/97 34/71/97
f 86/72/98 96/63/98 45/64/98
f 28/28/99 26/26/99 64/73/99
f 2/1/100 54/92/100 61/75/100
f 16/16/101 63/84/101 57/76/101
f 6/6/102 62/85/102 55/77/102
f 32/35/103 30/33/103 60/78/103
f 22/22/104 20/20/104 58/80/104
f 10/10/105 56/86/105 49/82/105
f 26/26/106 24/24/106 52/83/106
f 14/14/107 50/89/107 63/84/107
f 4/4/108 61/75/108 62/85/108
f 30/33/109 28/28/109 59/74/109
f 20/20/110 18/18/110 57/76/110
f 8/8/111 55/77/111 56/86/111
f 2/87/112 32/35/112 53/79/112
f 24/24/113 22/22/113 51/81/113
f 12/12/114 49/82/114 50/89/114
f 59/74/115 64/73/115 80/90/115
f 54/92/116 74/107/116 71/93/116
f 63/84/117 79/102/117 69/94/117
f 62/85/118 78/103/118 68/95/118
f 53/79/119 60/78/119 77/96/119
f 51/81/120 58/80/120 76/98/120
f 56/86/121 75/104/121 65/100/121
f 64/73/122 52/83/122 73/101/122
f 50/89/123 72/106/123 79/102/123
f 61/75/124 71/93/124 78/103/124
f 60/78/125 59/74/125 70/91/125
f 58/80/126 57/76/126 69/94/126
f 55/77/127 68/95/127 75/104/127
f 54/88/128 53/79/128 67/97/128
f 52/83/129 51/81/129 66/99/129
f 49/82/130 65/100/130 72/106/130
f 70/91/131 80/90/131 96/63/131
f 74/107/132 90/70/132 87/58/132
f 79/102/133 95/62/133 85/69/133
f 78/103/134 94/60/134 84/49/134
f 67/97/135 77/96/135 93/55/135
f 66/99/136 76/98/136 92/52/136
f 75/104/137 91/51/137 81/30/137
f 80/90/138 73/101/138 89/43/138
f 72/106/139 88/32/139 95/62/139
f 71/93/140 87/58/140 94/60/140
f 77/96/141 70/91/141 86/72/141
f 76/98/142 69/94/142 85/69/142
f 68/95/143 84/49/143 91/51/143
f 74/105/144 67/97/144 83/67/144
f 73/101/145 66/99/145 82/66/145
f 65/100/146 81/30/146 88/32/146
