# Blender v3.6.4 OBJ File: ''
# www.blender.org
mtllib button.mtl
o 立方体
v -0.769012 0.012769 0.769012
v -0.769012 0.844596 0.769012
v -0.769012 0.012769 -0.769012
v -0.769012 0.844596 -0.769012
v 0.769012 0.012769 0.769012
v 0.769012 0.844596 0.769012
v 0.769012 0.012769 -0.769012
v 0.769012 0.844596 -0.769012
v -0.910459 0.007208 -0.508915
v -0.910459 0.007208 0.508915
v -0.910459 0.853272 0.508915
v -0.910459 0.853272 -0.508915
v 0.910459 0.007208 0.508915
v 0.910459 0.007208 -0.508915
v 0.910459 0.853272 -0.508915
v 0.910459 0.853272 0.508915
v 0.486181 0.007208 -0.910459
v -0.486181 0.007208 -0.910459
v -0.486181 0.853272 -0.910459
v 0.486181 0.853272 -0.910459
v -0.486181 0.007208 0.910459
v 0.486181 0.007208 0.910459
v 0.486181 0.853272 0.910459
v -0.486181 0.853272 0.910459
v -0.569131 0.960261 -0.559623
v 0.569131 0.960261 -0.559623
v -0.569131 0.960261 0.559623
v 0.569131 0.960261 0.559623
vt 0.002939 0.782479
vt 0.111979 0.864608
vt 0.112118 0.897898
vt 0.769847 0.999900
vt 0.863624 0.883846
vt 0.895349 0.882267
vt 0.987954 0.217521
vt 0.878914 0.135392
vt 0.878774 0.102102
vt 0.221046 0.000100
vt 0.127269 0.116153
vt 0.095544 0.117733
vt 0.217968 0.230260
vt 0.274252 0.051326
vt 0.221684 0.769974
vt 0.253874 0.949640
vt 0.048477 0.728403
vt 0.990793 0.763531
vt 0.946625 0.751815
vt 0.000099 0.236469
vt 0.044268 0.248185
vt 0.772925 0.769740
vt 0.942416 0.271597
vt 0.769209 0.230026
vt 0.716641 0.948674
vt 0.737019 0.050360
vt 0.749405 0.000100
vt 0.241488 0.999900
vn -0.8785 0.0000 -0.4777
vn 0.4473 0.0000 -0.8944
vn 0.8785 0.0000 0.4777
vn -0.4473 0.0000 0.8944
vn -0.1922 0.9251 0.3275
vn -0.1922 0.9251 -0.3275
vn -0.2991 0.9542 0.0000
vn 0.8785 0.0000 -0.4777
vn 1.0000 0.0000 0.0000
vn -0.8785 0.0000 0.4777
vn -1.0000 0.0000 0.0000
vn 0.2991 0.9542 0.0000
vn 0.0000 1.0000 0.0000
vn 0.3204 0.9248 -0.2051
vn 0.0000 0.9565 -0.2917
vn 0.3204 0.9248 0.2051
vn 0.0000 0.9565 0.2917
vn 0.4473 0.0000 0.8944
vn 0.0000 0.0000 1.0000
vn -0.4473 0.0000 -0.8944
vn 0.0000 0.0000 -1.0000
vn -0.3204 0.9248 0.2051
vn -0.3204 0.9248 -0.2051
vn 0.1922 0.9251 -0.3275
vn 0.1922 0.9251 0.3275
usemtl Material.001
s off
f 9/1/1 4/2/1 3/3/1
f 17/4/2 8/5/2 7/6/2
f 13/7/3 6/8/3 5/9/3
f 21/10/4 2/11/4 1/12/4
f 27/13/5 2/11/5 24/14/5
f 4/2/6 25/15/6 19/16/6
f 12/17/7 27/13/7 25/15/7
f 8/5/8 14/18/8 7/6/8
f 15/19/9 13/7/9 14/18/9
f 2/11/10 10/20/10 1/12/10
f 11/21/11 9/1/11 10/20/11
f 26/22/12 16/23/12 15/19/12
f 25/15/13 28/24/13 26/22/13
f 8/5/14 26/22/14 15/19/14
f 19/16/15 26/22/15 20/25/15
f 28/24/16 6/8/16 16/23/16
f 27/13/17 23/26/17 28/24/17
f 6/8/18 22/27/18 5/9/18
f 23/26/19 21/10/19 22/27/19
f 4/2/20 18/28/20 3/3/20
f 19/16/21 17/4/21 18/28/21
f 9/1/1 12/17/1 4/2/1
f 17/4/2 20/25/2 8/5/2
f 13/7/3 16/23/3 6/8/3
f 21/10/4 24/14/4 2/11/4
f 27/13/22 11/21/22 2/11/22
f 4/2/23 12/17/23 25/15/23
f 12/17/7 11/21/7 27/13/7
f 8/5/8 15/19/8 14/18/8
f 15/19/9 16/23/9 13/7/9
f 2/11/10 11/21/10 10/20/10
f 11/21/11 12/17/11 9/1/11
f 26/22/12 28/24/12 16/23/12
f 25/15/13 27/13/13 28/24/13
f 8/5/24 20/25/24 26/22/24
f 19/16/15 25/15/15 26/22/15
f 28/24/25 23/26/25 6/8/25
f 27/13/17 24/14/17 23/26/17
f 6/8/18 23/26/18 22/27/18
f 23/26/19 24/14/19 21/10/19
f 4/2/20 19/16/20 18/28/20
f 19/16/21 20/25/21 17/4/21
